<svg width="20" height="16" viewBox="0 0 20 16" fill="none" xmlns="http://www.w3.org/2000/svg">
<path d="M11.6667 3.83398H13.6144C13.8182 3.83398 13.9201 3.83398 14.016 3.85701C14.1011 3.87742 14.1824 3.91109 14.2569 3.95678C14.341 4.00832 14.4131 4.08038 14.5572 4.22451L17.9428 7.61013C18.087 7.75425 18.159 7.82632 18.2106 7.91041C18.2562 7.98497 18.2899 8.06626 18.3103 8.15129C18.3334 8.2472 18.3334 8.34911 18.3334 8.55294V10.9173C18.3334 11.3056 18.3334 11.4997 18.2699 11.6529C18.1853 11.8571 18.0231 12.0193 17.8189 12.1039C17.6658 12.1673 17.4716 12.1673 17.0834 12.1673M12.9167 12.1673H11.6667M11.6667 12.1673V4.00065C11.6667 3.06723 11.6667 2.60052 11.485 2.244C11.3252 1.9304 11.0703 1.67543 10.7567 1.51564C10.4002 1.33398 9.93344 1.33398 9.00002 1.33398H4.33335C3.39993 1.33398 2.93322 1.33398 2.5767 1.51564C2.2631 1.67543 2.00813 1.9304 1.84834 2.244C1.66669 2.60052 1.66669 3.06723 1.66669 4.00065V10.5007C1.66669 11.4211 2.41288 12.1673 3.33335 12.1673M11.6667 12.1673H8.33335M8.33335 12.1673C8.33335 13.548 7.21407 14.6673 5.83335 14.6673C4.45264 14.6673 3.33335 13.548 3.33335 12.1673M8.33335 12.1673C8.33335 10.7866 7.21407 9.66732 5.83335 9.66732C4.45264 9.66732 3.33335 10.7866 3.33335 12.1673M17.0834 12.584C17.0834 13.7346 16.1506 14.6673 15 14.6673C13.8494 14.6673 12.9167 13.7346 12.9167 12.584C12.9167 11.4334 13.8494 10.5007 15 10.5007C16.1506 10.5007 17.0834 11.4334 17.0834 12.584Z" stroke="#192A3E" stroke-width="2" stroke-linecap="round" stroke-linejoin="round"/>
</svg>
