<svg width="16" height="20" viewBox="0 0 16 20" fill="none" xmlns="http://www.w3.org/2000/svg">
<path d="M9.66665 1.89063V5.33274C9.66665 5.79945 9.66665 6.03281 9.75747 6.21107C9.83737 6.36787 9.96485 6.49535 10.1217 6.57525C10.2999 6.66608 10.5333 6.66608 11 6.66608H14.4421M9.66665 14.166H4.66665M11.3333 10.8327H4.66665M14.6666 8.32287V14.3327C14.6666 15.7328 14.6666 16.4329 14.3942 16.9677C14.1545 17.4381 13.772 17.8205 13.3016 18.0602C12.7668 18.3327 12.0668 18.3327 10.6666 18.3327H5.33331C3.93318 18.3327 3.23312 18.3327 2.69834 18.0602C2.22793 17.8205 1.84548 17.4381 1.6058 16.9677C1.33331 16.4329 1.33331 15.7328 1.33331 14.3327V5.66602C1.33331 4.26588 1.33331 3.56582 1.6058 3.03104C1.84548 2.56063 2.22793 2.17818 2.69834 1.9385C3.23312 1.66602 3.93318 1.66602 5.33331 1.66602H8.00979C8.62127 1.66602 8.92701 1.66602 9.21473 1.73509C9.46982 1.79633 9.71368 1.89734 9.93736 2.03442C10.1897 2.18902 10.4058 2.40521 10.8382 2.83759L13.4951 5.49444C13.9275 5.92682 14.1436 6.14301 14.2982 6.3953C14.4353 6.61898 14.5363 6.86285 14.5976 7.11794C14.6666 7.40566 14.6666 7.71139 14.6666 8.32287Z" stroke="#9BA9BB" stroke-width="2" stroke-linecap="round" stroke-linejoin="round"/>
</svg>
