<svg width="18" height="18" viewBox="0 0 18 18" fill="none" xmlns="http://www.w3.org/2000/svg">
<path d="M16.5 14V9C16.5 4.85786 13.1421 1.5 9 1.5C4.85786 1.5 1.5 4.85786 1.5 9V14M3.58333 16.5C2.43274 16.5 1.5 15.5673 1.5 14.4167V12.75C1.5 11.5994 2.43274 10.6667 3.58333 10.6667C4.73393 10.6667 5.66667 11.5994 5.66667 12.75V14.4167C5.66667 15.5673 4.73393 16.5 3.58333 16.5ZM14.4167 16.5C13.2661 16.5 12.3333 15.5673 12.3333 14.4167V12.75C12.3333 11.5994 13.2661 10.6667 14.4167 10.6667C15.5673 10.6667 16.5 11.5994 16.5 12.75V14.4167C16.5 15.5673 15.5673 16.5 14.4167 16.5Z" stroke="#9BA9BB" stroke-width="2" stroke-linecap="round" stroke-linejoin="round"/>
</svg>
