<svg width="18" height="18" viewBox="0 0 18 18" fill="none" xmlns="http://www.w3.org/2000/svg">
<path d="M12.3545 16.1421L12.3548 13.464C12.3549 11.9847 11.1557 10.7854 9.67637 10.7854H3.67868C2.19957 10.7854 1.00047 11.9843 1.0003 13.4634L1 16.1421M16.9998 16.1423L17 13.4641C17.0001 11.9848 15.8009 10.7855 14.3216 10.7855M11.8386 2.38359C12.4964 2.87163 12.9226 3.65401 12.9226 4.53595C12.9226 5.41789 12.4964 6.20027 11.8386 6.6883M9.4115 4.5358C9.4115 6.01503 8.21235 7.21418 6.73312 7.21418C5.25389 7.21418 4.05474 6.01503 4.05474 4.5358C4.05474 3.05657 5.25389 1.85742 6.73312 1.85742C8.21235 1.85742 9.4115 3.05657 9.4115 4.5358Z" stroke="#9BA9BB" stroke-width="2" stroke-linecap="round" stroke-linejoin="round"/>
</svg>
