<svg width="20" height="20" viewBox="0 0 20 20" fill="none" xmlns="http://www.w3.org/2000/svg">
<path d="M17.6754 13.2421C17.1452 14.4959 16.316 15.6006 15.2603 16.4599C14.2045 17.3191 12.9543 17.9067 11.6191 18.1711C10.2838 18.4356 8.90404 18.3689 7.60048 17.977C6.29691 17.585 5.10921 16.8797 4.14121 15.9227C3.1732 14.9657 2.45437 13.7861 2.04755 12.4871C1.64074 11.1881 1.55832 9.8092 1.80752 8.47099C2.05672 7.13278 2.62994 5.87599 3.47706 4.81049C4.32419 3.74499 5.41943 2.90323 6.66702 2.3588M17.6994 6.81144C18.033 7.61682 18.2376 8.46827 18.307 9.3345C18.3242 9.5485 18.3328 9.6555 18.2903 9.75188C18.2548 9.8324 18.1845 9.90859 18.107 9.9504C18.0144 10.0005 17.8986 10.0005 17.667 10.0005H10.667C10.4337 10.0005 10.317 10.0005 10.2279 9.95505C10.1495 9.9151 10.0857 9.85136 10.0458 9.77296C10.0004 9.68383 10.0004 9.56715 10.0004 9.3338V2.3338C10.0004 2.10224 10.0004 1.98646 10.0504 1.89378C10.0922 1.81636 10.1684 1.74604 10.2489 1.71054C10.3453 1.66805 10.4523 1.67663 10.6663 1.69378C11.5326 1.76323 12.384 1.96787 13.1894 2.30147C14.2004 2.72026 15.1191 3.33409 15.8929 4.10791C16.6667 4.88173 17.2806 5.80039 17.6994 6.81144Z" stroke="#9BA9BB" stroke-width="2" stroke-linecap="round" stroke-linejoin="round"/>
</svg>
